<svg height="64" viewBox="0 0 128 128" width="64" xmlns="http://www.w3.org/2000/svg" xmlns:xlink="http://www.w3.org/1999/xlink"><linearGradient id="a" gradientUnits="userSpaceOnUse" x1="0" x2="128" y1="128" y2="0"><stop offset="0" stop-color="#333"/><stop offset="1" stop-color="#5d5d5d"/></linearGradient><path d="m29.09375 11.234375c-3.183804 0-5.71875 2.566196-5.71875 5.75v94.031255c0 3.1838 2.534946 5.75 5.71875 5.75h69.8125c3.1838 0 5.71875-2.5662 5.71875-5.75v-70.656255h-21.03125c-4.306108 0-8.0625-3.141109-8.0625-7.3125v-21.8125zm50.4375 0v21.8125c0 1.714122 1.631968 3.3125 4.0625 3.3125h21.03125zm-46.1875 51.3125h19.03125l.25 5.46875h-.625c-.126107-.962831-.313482-1.64983-.53125-2.0625-.355356-.664804-.841468-1.159242-1.4375-1.46875-.584605-.320929-1.349667-.499979-2.3125-.5h-3.28125v17.84375c-.000012 1.432815.15925 2.300914.46875 2.65625.435561.481426 1.094449.718751 2 .71875h.8125v.625h-9.875v-.625h.8125c.985768.000001 1.712342-.278949 2.125-.875.252166-.366798.343741-1.193273.34375-2.5v-17.84375h-2.8125c-1.088943.000021-1.854004.08955-2.3125.25-.596054.217809-1.107139.631046-1.53125 1.25-.424114.618995-.66977 1.476719-.75 2.53125h-.65625zm37.3125 0h10.78125v.625c-.91701.03441-1.562385.173884-1.90625.4375-.332422.263659-.500009.554071-.5.875-.000009.424133.293541 1.061183.84375 1.875l3.5625 5.34375 4.15625-5.25c.481406-.618955.771818-1.051979.875-1.28125.11461-.229229.187481-.446767.1875-.6875-.000019-.240691-.112469-.472828-.25-.65625-.171956-.24069-.361381-.40828-.625-.5-.263655-.10314-.830966-.14476-1.65625-.15625v-.625h8.28125v.625c-.653386.03441-1.181122.140585-1.59375.3125-.618997.263659-1.171709.615484-1.6875 1.0625-.515833.447058-1.278845 1.265207-2.21875 2.46875l-4.625 5.90625 5.03125 7.46875c1.386942 2.063254 2.397654 3.387302 3.0625 3.9375.676265.538738 1.530851.81769 2.5625.875v.625h-10v-.625c.66481-.01146 1.147784-.06141 1.46875-.1875.240697-.103161.44472-.262423.59375-.46875.16046-.217786.249982-.438461.25-.65625-.000018-.263636-.05311-.54886-.15625-.8125-.08025-.19486-.418566-.686159-.96875-1.5l-3.9375-5.96875-4.875 6.25c-.515819.664828-.834344 1.114502-.9375 1.34375-.10316.217789-.156256.44679-.15625.6875-.000006.366801.159256.665539.46875.90625.30948.240713.910092.37186 1.78125.40625v.625h-8.28125v-.625c.584586-.05731 1.075886-.160349 1.5-.34375.710673-.298024 1.389347-.714398 2.03125-1.21875.641896-.504347 1.393444-1.26941 2.21875-2.3125l5.5-6.9375-4.59375-6.75c-1.249419-1.822518-2.316354-3.000816-3.1875-3.5625-.871152-.573103-1.865215-.87184-3-.90625zm-19.3125 7.34375h17.96875l.25 5.09375h-.6875c-.240731-1.226469-.514493-2.07273-.8125-2.53125-.28658-.458478-.708141-.821767-1.28125-1.0625-.458515-.17192-1.279802-.249978-2.4375-.25h-6.375v9.21875h5.125c1.329636.000013 2.209198-.192549 2.65625-.59375.596035-.52726.93121-1.451586 1-2.78125h.625v8.125h-.625c-.160491-1.134778-.30829-1.897791-.46875-2.21875-.206341-.401177-.561302-.708239-1.03125-.9375-.469976-.229239-1.181951-.343739-2.15625-.34375h-5.125v7.6875c-.000007 1.031628.0333 1.677002.125 1.90625.09169.217789.239493.393702.46875.53125.229242.12609.701842.187501 1.34375.1875h3.9375c1.318173.000001 2.278935-.09785 2.875-.28125.596034-.183399 1.137283-.55501 1.6875-1.09375.710657-.710672 1.473668-1.754683 2.21875-3.1875h.6875l-2 5.8125h-17.96875v-.625h.8125c.550198 0 1.069611-.111362 1.5625-.375.366797-.183395.592659-.476948.71875-.84375.13755-.366798.218745-1.11521.21875-2.25v-15.15625c-.000005-1.478642-.139479-2.374854-.4375-2.71875-.412653-.458478-1.099652-.687478-2.0625-.6875h-.8125z" fill="url(#a)"/></svg>